<?xml version="1.0" ?><svg height="60px" version="1.1" viewBox="0 0 60 60" width="60px" xmlns="http://www.w3.org/2000/svg" xmlns:xlink="http://www.w3.org/1999/xlink"><title/><desc/><defs/><g fill="none" fill-rule="evenodd" id="Page-1" stroke="none" stroke-width="1"><g id="020---Star" transform="translate(0.000000, 1.000000)"><g id="Colour"><path d="M31.7569,1.14435 L39.2006,16.94809 C39.4742047,17.5450605 40.0274966,17.9662669 40.67576,18.07109 L57.32037,20.60534 C58.0728338,20.7512497 58.6840769,21.2991656 58.9110909,22.0312558 C59.1381048,22.7633461 58.9440977,23.560962 58.4062,24.107 L46.36205,36.40845 C45.8969861,36.8906851 45.6879532,37.5647752 45.79858,38.22553 L48.64182,55.59553 C48.7969313,56.3422303 48.5093863,57.1116407 47.9025754,57.5735945 C47.2957646,58.0355484 46.4775729,58.1079148 45.7991,57.75964 L30.9117,49.55864 C30.3445605,49.2442297 29.6554395,49.2442297 29.0883,49.55864 L14.2009,57.75964 C13.5224271,58.1079148 12.7042354,58.0355484 12.0974246,57.5735945 C11.4906137,57.1116407 11.2030687,56.3422303 11.35818,55.59553 L14.20142,38.22553 C14.3120468,37.5647752 14.1030139,36.8906851 13.63795,36.40845 L1.5938,24.107 C1.05593046,23.5609597 0.861941478,22.7633618 1.08895299,22.0312898 C1.31596449,21.2992177 1.92718692,20.7513115 2.67963,20.60539 L19.32424,18.0711 C19.9725034,17.9662769 20.5257953,17.5450705 20.7994,16.9481 L28.2431,1.14435 C28.5505421,0.448721422 29.2394609,-5.16717968e-06 30,-5.16717968e-06 C30.7605391,-5.16717968e-06 31.4494579,0.448721422 31.7569,1.14435 Z" fill="#FFE100" id="Shape"/><path d="M45.3579,36.41 C44.8933016,36.8936052 44.6855527,37.5688737 44.79797,38.23 L47.63797,55.6 C47.7929131,56.345884 47.5054921,57.1144319 46.8991346,57.5756052 C46.292777,58.0367786 45.4753841,58.1085116 44.79797,57.76 L43.04797,56.8 C43.855341,56.3859367 44.2976539,55.4931951 44.13797,54.6 L41.29797,37.23 C41.1855527,36.5688737 41.3933016,35.8936052 41.8579,35.41 L53.90783,23.11 C54.6669146,22.3180842 54.6972933,21.0781385 53.9779,20.25 L56.31799,20.61 C57.0709382,20.7544339 57.6832718,21.3015689 57.911207,22.0335783 C58.1391422,22.7655877 57.9456753,23.5636351 57.40783,24.11 L45.3579,36.41 Z" fill="#FFB600" id="Shape"/><path d="M18.07764,36.97382 C18.1922583,36.3033523 17.9792812,35.6185065 17.50464,35.13129 L5.17383,22.67926 C4.42623813,21.9154782 4.36049454,20.7159067 5.02014,19.875 L4.11865,20.01178 C4.14893,19.96643 4.17383,19.91785 4.20765,19.875 L2.40665,20.14832 C1.63954262,20.2869337 1.01253366,20.8394374 0.778496375,21.5830058 C0.544459095,22.3265743 0.741984339,23.1385991 1.29141,23.69159 L13.62219,36.14368 C14.0968397,36.6308637 14.3097811,37.3157161 14.19507,37.98615 L11.28907,55.57086 C11.1614126,56.2365124 11.3743249,56.9219687 11.8566521,57.3981513 C12.3389794,57.874334 13.027109,58.0784409 13.69107,57.94226 C14.1378027,58.0419031 14.6055091,57.9763121 15.0076,57.75763 L16.58365,56.89709 C15.5871965,56.5894957 14.9797564,55.5836148 15.17142,54.55853 L18.07764,36.97382 Z" fill="#FFFFFF" id="Shape"/><path d="M18.14844,38.87158 C18.4633166,36.9540814 17.8494148,35.0009438 16.49414,33.6084 L7.07031,23.98291 L19.92676,22.02591 C21.8914891,21.7210725 23.5752482,20.4575107 24.417,18.65625 L30,6.80225 L35.581,18.65283 C36.4226712,20.4555677 38.1072282,21.720432 40.07319,22.02583 L52.92964,23.98283 L43.50386,33.61027 C42.1493392,35.0034307 41.5362139,36.9566633 41.85156,38.874 L44.03613,52.22166 L32.8418,46.05518 C31.0734665,45.0789497 28.9278569,45.0785721 27.15918,46.05418 L15.96387,52.22168 L18.14844,38.87158 Z" fill="#FFE100" id="Shape"/></g><g id="Outline"><path d="M13.87,40.24 L14.2,38.23 C14.3123679,37.5688643 14.1045968,36.8936081 13.64,36.41 L1.59,24.11 C1.05218664,23.5635995 0.858761033,22.7655408 1.0867276,22.033538 C1.31469417,21.3015353 1.9270458,20.7544186 2.68,20.61 L19.32,18.07 C19.9673992,17.9625381 20.5206736,17.5438439 20.8,16.95 L28.24,1.14 C28.5507832,0.446397569 29.2399536,5.07226368e-06 30,5.07226368e-06 C30.7600464,5.07226368e-06 31.4492168,0.446397569 31.76,1.14 L39.2,16.95 C39.4793264,17.5438439 40.0326008,17.9625381 40.68,18.07 L57.32,20.61 C58.0729542,20.7544186 58.6853058,21.3015353 58.9132724,22.033538 C59.141239,22.7655408 58.9478134,23.5635995 58.41,24.11 L46.36,36.41 C45.8954032,36.8936081 45.6876321,37.5688643 45.8,38.23 L48.64,55.6 C48.7949604,56.345888 48.507544,57.1144485 47.9011805,57.5756263 C47.2948171,58.0368041 46.4774134,58.1085294 45.8,57.76 L30.91,49.56 C30.345531,49.2400003 29.654469,49.2400003 29.09,49.56 L14.2,57.76 C13.5225866,58.1085294 12.7051829,58.0368041 12.0988195,57.5756263 C11.492456,57.1144485 11.2050396,56.345888 11.36,55.6 L12.58,48.14" id="Shape" stroke="#000000" stroke-linecap="round" stroke-linejoin="round" stroke-width="2"/><path d="M18.14844,38.87158 C18.4633166,36.9540814 17.8494148,35.0009438 16.49414,33.6084 L7.07031,23.98291 L19.92676,22.02591 C21.8914891,21.7210725 23.5752482,20.4575107 24.417,18.65625 L30,6.80225 L35.581,18.65283 C36.4226712,20.4555677 38.1072282,21.720432 40.07319,22.02583 L52.92964,23.98283 L43.50386,33.61027 C42.1493392,35.0034307 41.5362139,36.9566633 41.85156,38.874 L44.03613,52.22166 L32.8418,46.05518 C31.0734665,45.0789497 28.9278569,45.0785721 27.15918,46.05418 L15.96387,52.22168 L18.14844,38.87158 Z" id="Shape" stroke="#000000" stroke-linecap="round" stroke-linejoin="round"/><circle cx="13.16667" cy="44.17941" fill="#000000" fill-rule="nonzero" id="Oval" r="1"/></g></g></g></svg>